<svg xmlns="http://www.w3.org/2000/svg" width="394.424" height="150.213" viewBox="0 0 394.424 150.213">
  <g id="Group_63" data-name="Group 63" transform="translate(-1449.815 -697.624)">
    <g id="Group_7" data-name="Group 7" transform="translate(1655.215 15.624)">
      <g id="Group_6" data-name="Group 6" transform="translate(-205.4 682)">
        <g id="Group_5" data-name="Group 5" transform="translate(0)">
          <path id="Path_28" data-name="Path 28" d="M1.2,0h.964A12.462,12.462,0,0,1,1.8,2.383,9.687,9.687,0,0,0,2.972,9.457c1.211,1.573,3.013,2.414,4.739,3.314l-.482.241a7.181,7.181,0,0,0-.482.964,13.057,13.057,0,0,1-1.687-.482l-.241-.723a4.315,4.315,0,0,0-.964-.482l.482-.482-.768-.241a3.993,3.993,0,0,1-2.123-2.41l-.12-.873A3.8,3.8,0,0,0,0,6.024V5.3L.723,5.06.645,4.626A9.282,9.282,0,0,1,1.2,0Z" transform="translate(79.129 91.547)" fill="#d17f97"/>
          <path id="Path_33" data-name="Path 33" d="M1.4,0c.587.09.587.09,1.069.572-.111,1.557-.111,1.557-.723,2.169a7.726,7.726,0,0,1-1.446,0C.06,2.5.06,2.5,0,1.822.083.768.294.162,1.4,0Z" transform="translate(70.876 87.119)" fill="#d17f97"/>
          <path id="Path_36" data-name="Path 36" d="M.723,0,3.855,1.687l-.482.241a7.181,7.181,0,0,0-.482.964A13.057,13.057,0,0,1,1.2,2.41L.964,1.687A4.315,4.315,0,0,0,0,1.2L.482.723Z" transform="translate(82.985 102.631)" fill="#d17f97"/>
          <path id="Path_38" data-name="Path 38" d="M.019,0a2.9,2.9,0,0,1,1.2.723A4.812,4.812,0,0,1,1.5,3.885l-.271.452H.5A11.133,11.133,0,0,1,.019,0Z" transform="translate(99.592 95.161)" fill="#d17f97"/>
          <path id="Path_41" data-name="Path 41" d="M.664,0h.964A32.882,32.882,0,0,1,.9,4.1H.182a2.827,2.827,0,0,1-.03-1.913L.285,1.56Q.466.777.664,0Z" transform="translate(79.67 91.547)" fill="#d17f97"/>
          <path id="Path_56" data-name="Path 56" d="M.241,0c.408.022.814.059,1.22.105L2.132.18l.519.061V.723A8.262,8.262,0,0,1,.723.964,1.832,1.832,0,0,1,0,.241Z" transform="matrix(0.982, -0.191, 0.191, 0.982, 86.531, 104.82)" fill="#d17f97"/>
          <g id="Group_4" data-name="Group 4" transform="translate(0 0)">
            <path id="Path_6" data-name="Path 6" d="M41.453,0a6.53,6.53,0,0,1,1.355,3.223l.158.612A22.23,22.23,0,0,1,40.73,20.964c-.486.812-.981,1.618-1.476,2.425A25.982,25.982,0,0,0,35.3,37.578q0,.563-.009,1.127-.012,1.465-.011,2.929,0,2.348-.022,4.7c0,.539,0,1.079,0,1.618-.008,2.733-.07,5.51-1.377,7.97l-.252.487a12.991,12.991,0,0,1-5.907,5.763l-.6.3a12.8,12.8,0,0,1-5.079.77l-.7.007a14.485,14.485,0,0,1-9.777-3.915,13.42,13.42,0,0,1-3.4-8.972l0-.5q0-.538-.006-1.075,0-.857-.013-1.713Q8.117,44.632,8.1,42.2,8.1,40.7,8.079,39.212q-.005-.563-.006-1.126A29.712,29.712,0,0,0,3.246,22.114c-1.764-2.9-3.371-5.84-3.239-9.343l.241-.482c.748-.1,1.491-.123,2.244-.158l.648-.083.241-.482,4.337.241.482-.964H9.646l-.241.482H8.923l-.075.437a2.106,2.106,0,0,1-.889,1.25,6.049,6.049,0,0,1-1.22.136,1.844,1.844,0,0,0-1.672.587c-.172.478-.334.96-.482,1.446A5.462,5.462,0,0,1,1.694,14.7v2.169l.723.241A13.056,13.056,0,0,1,2.9,18.795l.456.063c.508.178.508.178.761.589l.169.507.177.5a4.284,4.284,0,0,1,.124,1.471H5.55c.271.9.271.9,0,1.446h1.2l.166-.527a5.752,5.752,0,0,1,1.521-1.882L8.2,20.723a2.652,2.652,0,0,1,1.626-1.4c.908-.052,1.8-.061,2.711-.045l-.482.964h.482v-.482a2.025,2.025,0,0,1,1.551-.422A16.855,16.855,0,0,1,15.911,20c.694.3.694.3,1.31.105.617-.105.617-.105,1.074.125a2.958,2.958,0,0,0,1.524.318l.574.015q.594.009,1.188.013c1.44.043,1.44.043,2.054.585a5.185,5.185,0,0,1,.227,2.213,1.173,1.173,0,0,0,.723.723q.6.132,1.2.241l.482.482a10.19,10.19,0,0,0,7.078-.437l.5-.181a5.436,5.436,0,0,0,3.27-2.756,10.327,10.327,0,0,0,.587-2.093l.136-.8.073-.562a8.02,8.02,0,0,1,2.492-4.22,6.321,6.321,0,0,0,1.772-3.651h.482a8.529,8.529,0,0,0-.723-1.687,1.841,1.841,0,0,0-1.5-.1l-.55.218a2.413,2.413,0,0,1-2.048.12V6.506l.873.045a4.034,4.034,0,0,0,2.5-.768,1.728,1.728,0,0,0,.422-1.566A3.1,3.1,0,0,0,41.182,3.1c-.211-.452-.211-.452.03-1.175a4.647,4.647,0,0,0-.723-.964Z" transform="translate(68.519 86.968)" fill="#d17f97"/>
            <path id="Path_14" data-name="Path 14" d="M26.343,0h.241q.034,3.419.05,6.837.008,1.588.023,3.176.016,1.535.019,3.07,0,.583.01,1.166a13.9,13.9,0,0,1-4.114,10.508A11.959,11.959,0,0,1,13.8,28.012l-.721.015A14.228,14.228,0,0,1,3.2,24.149a14.04,14.04,0,0,1-2.159-3.185l-.264-.525C-.32,17.823.033,15,.139,12.229q.025-.8.048-1.6Q.245,8.689.319,6.747l.241.482h.482a4.312,4.312,0,0,1,0,2.41H.8L.56,14.94l.964.241-.241-.723c-.02-.41-.026-.82-.024-1.23l0-.718.006-.748,0-.756q0-.925.012-1.849l.723-.241a4.09,4.09,0,0,1,.723.723V10.6h.482l.482,1.928h.482l.241.723H4.9l.2-.519.264-.671.263-.669c.234-.551.234-.551.475-.792a2.322,2.322,0,0,1,1.2,0,7.428,7.428,0,0,1,1.2,1.446v.482l.723.241v.482h.723v-.482c.9-.271.9-.271,1.446,0v-.482q.6-.368,1.2-.723l.241-.482a8,8,0,0,1,.843-.5,4.317,4.317,0,0,0,1.084-.708c.464-.038.929-.061,1.394-.076l.854-.031.9-.029.9-.032q1.108-.038,2.215-.074V9.156l.873-.09a2.208,2.208,0,0,0,1.479-.909c.37-.62.7-1.243,1.021-1.892l.4-.688a8.671,8.671,0,0,0,.447-3.515A3.048,3.048,0,0,1,26.343,0Z" transform="translate(76.882 122.149)" fill="#d17f97"/>
            <path id="Path_24" data-name="Path 24" d="M13.012,0c1.136.563,1.136.563,1.445,1.278.355,2.067.355,2.067-.24,3.059h-.482l-.06.527A4.41,4.41,0,0,1,12.53,6.747l-.392.663c-.331.542-.331.542-.813.783q-.364.6-.723,1.2c-.875,1.1-2.3,1.2-3.614,1.446a9.721,9.721,0,0,1-2.395-.12,8.368,8.368,0,0,0-1.7-.105,5.522,5.522,0,0,1-2.41-.5L0,9.638a5.567,5.567,0,0,1,2.651,0,9.986,9.986,0,0,0,7.473-2.313C12.343,5.289,12.756,2.867,13.012,0Z" transform="translate(86.599 95.161)" fill="#d17f97"/>
            <g id="Group_3" data-name="Group 3">
              <path id="Path_7" data-name="Path 7" d="M46.358,0c.482.241.482.241.723.84a24.447,24.447,0,0,1-.723,17.473l-.2.457a25.291,25.291,0,0,1-9.926,11.359c-.724.395-.724.395-.953.954-.032.552-.056,1.1-.075,1.657-.238,4.3-2.418,7.715-5.467,10.632a18.51,18.51,0,0,1-8.916,3.855l-.828.166A20.534,20.534,0,0,1,4.717,42.921a13.866,13.866,0,0,1-4.7-9.556,15.051,15.051,0,0,1,1.041-6.619l.231-.625a11.767,11.767,0,0,1,6.034-5.881l.585-.266c4.093-1.763,8.25-1.473,12.427-.216,3.824,1.146,6.842,1.415,10.544-.31a13.012,13.012,0,0,0,5.8-7.356,33.748,33.748,0,0,0,.768-4.864l.723.241a6.063,6.063,0,0,0,4.487-.9,9.594,9.594,0,0,1,3.465-.782q.07-.836.136-1.672l.076-.94.029-.761-.241-.241c.022-.368.059-.734.105-1.1l.074-.6Z" transform="translate(131.806 32.029)" fill="#d17f97"/>
              <path id="Path_8" data-name="Path 8" d="M.241,0C1.8.323,1.8.323,2.364,1.009a13.788,13.788,0,0,1,.768,2.364l-.241.482.723.241A11.986,11.986,0,0,1,5.92,7.781,4.854,4.854,0,0,0,6.988,9.156q.4.651.768,1.325l.387.7a2.135,2.135,0,0,1,.291,1.348l-.482.241.241.542a3.2,3.2,0,0,1,.241,1.626l.723.241H8.675a8.678,8.678,0,0,0,0,1.446l.482.482a6.284,6.284,0,0,1,.03,1.114l-.013.6-.017.457-.482.241v.723h.482l.166-.467.316-.5.557-.105a2.523,2.523,0,0,0,1.852-1.34,17.025,17.025,0,0,0,.184-2.278l.057-.614.482-.241v3.855l-1.2.482-.241.723L10.6,20a4.116,4.116,0,0,0-.407,1.1l-.184.6-.133.466H9.4l.241,1.2.248-.529A7.2,7.2,0,0,1,12.6,19.6a2.545,2.545,0,0,0,.892-1.77l1.2-.241-.045-.8c.051-1,.109-.978.768-1.611a9.46,9.46,0,0,0,.241-1.687H17.59l-.241,1.2h4.337l.241-.723h.482v-.482h.482V12.048h-.482v-.482h-.482c0-.482,0-.482.361-.873l.361-.331-.964-.241.355-.271c.631-.775.47-1.7.488-2.666a1.354,1.354,0,0,1,.612-1.13l.473-.271a8.709,8.709,0,0,1,.554,3.393l0,.564q0,.591,0,1.182c0,.588,0,1.176.011,1.764.024,5.8-1.625,10.742-4.129,15.938-1.478,3.092-2.362,5.872-1.365,9.282,1.042,2.726,3.093,4.033,5.648,5.226a10.389,10.389,0,0,0,7.6-.295,9.662,9.662,0,0,0,4.837-5.7c.631-3.489-.472-6.307-2.04-9.343a41.087,41.087,0,0,1-1.692-3.822l-.209-.532a9.409,9.409,0,0,1-.785-5.371l.181.407a3.134,3.134,0,0,0,1.864,1.946c.6.12,1.2.22,1.811.3V18.795h.482l.181-.663a3.553,3.553,0,0,1,1.265-1.747h.482v.964l-.452.166a2.159,2.159,0,0,0-.994,1.521h-.482v1.928a4.177,4.177,0,0,0,1.928.241A10,10,0,0,0,40,19.277c.236-.246.476-.488.723-.723l-.482-.241q-.607-.477-1.2-.964a21.655,21.655,0,0,1,.723-3.132l.457-.027.6-.048.593-.042c.613-.082.613-.082,1-.846h-.482v-.482h1.687q.6-.48,1.2-.964l.723-.241.241-.482a3.964,3.964,0,0,1,2.651-.723l.075-.437a2.206,2.206,0,0,1,.889-1.25h.482l.2-.452c.286-.512.286-.512,1.009-.994a7.537,7.537,0,0,1-1.024,2.982c-2.72,5.2-2.884,10.574-2.108,16.295l-.482-.482-.723.723.376.542c.4.762.312.851.105,1.626l.361.346.361.377a4.178,4.178,0,0,1-.723,2.169,3.122,3.122,0,0,1-2.5.648l-.873-.166.241,2.169,1.265-.226.712-.127c.553-.106,1.094-.226,1.638-.37.964,1.084.964,1.084.964,2.169h-.482l.015.8c-.186,1.584-1.408,2.637-2.425,3.78a6.507,6.507,0,0,0-1.506,2.771l-.245.806a3.014,3.014,0,0,0-.173,1.386,5.469,5.469,0,0,1-1.6,3.423A11.77,11.77,0,0,1,34.7,51.325a5.78,5.78,0,0,1-3.373-1.2l-.5-.12a1.581,1.581,0,0,1-1.19-.843,7.888,7.888,0,0,1-.015-.979l.015-.949c-.736-.736-1.616-.576-2.605-.6a8.3,8.3,0,0,1-3.419-.6q-.724.114-1.446.241l-.482-.482a4.129,4.129,0,0,0-3.132-.241v.482h-.482l.241-.723c-.512.021-1.024.047-1.536.075l-.864.042-.732.123-.482.723.241.482-.352.282-.461.38-.457.373a3.88,3.88,0,0,0-.9,1.374h-1.2c-.271-.9-.271-.9,0-1.446H10.6l-.723-2.892-1.2-.241-.211-.828-.271-.858-.482-.241a3.181,3.181,0,0,1,0-2.169l.5.105c.8.152,1.592.266,2.395.376l.211-.813a2.183,2.183,0,0,1,.753-1.355c.61-.083,1.214-.107,1.829-.135a1.685,1.685,0,0,0,1.3-.829l.241-.723.241-.241a7.107,7.107,0,0,0-1.2.241l-.241.482-.923-.017-1.2-.013L11,37.547l-.586,0-.539-.008c-.557.026-.557.026-1.2.537a7.985,7.985,0,0,1-1.25.03l-.658-.013-.5-.017v.482H5.783a36.361,36.361,0,0,1,.723-9.4l.149-.644q.387-1.659.795-3.312a20.307,20.307,0,0,0-.461-10.983l-.231-.766C5.475,9.752,3.251,6.315,1.234,2.98A11.336,11.336,0,0,1,0,.482Z" transform="translate(62.503 61.186)" fill="#d17f97"/>
              <path id="Path_10" data-name="Path 10" d="M.482,0l.964.241V.723l.542-.06c.857.078,1.071.392,1.626,1.024l.482.241c.055.488.11.976.157,1.465A1.869,1.869,0,0,0,5.06,4.578l.09.738.151.708a3.031,3.031,0,0,0,1.2.482q.726.356,1.446.723l.527.241a3.547,3.547,0,0,1,1.16.964l.241.964,2.41.241V9.156q.6-.368,1.2-.723l.241-.482a5.912,5.912,0,0,1,2.048-.271l.55,0a6.711,6.711,0,0,1,1.5.273v.482l.392.09c.684.18,1.349.4,2.018.633v.482l.577-.264a16,16,0,0,1,7.375-.941V7.952l.565-.177c3.21-.931,3.21-.931,5.489-3.2.241-.475.472-.953.693-1.438l.587.136.617.105.241-.241q.843-.015,1.687,0l-.482-1.2,1.687.241.482-.723a11.626,11.626,0,0,1,4,6.261,14.819,14.819,0,0,1-.867,8.437l-.363.786c-2.118,4.241-5.367,6.586-9.682,8.227a20.679,20.679,0,0,1-15.253-1.342c-3.989-2.427-7-5.143-8.3-9.749a19.116,19.116,0,0,1-.528-4.093,1.638,1.638,0,0,0-.812-1.3c-.7-.48-1.406-.938-2.121-1.392C3.813,5.88,1.042,3.679,0,1.446A5.894,5.894,0,0,1,.482,0Z" transform="translate(4.432 53.475)" fill="#d17f97"/>
              <path id="Path_12" data-name="Path 12" d="M11.073,0h.964a16.478,16.478,0,0,1-.61,2.331,12.039,12.039,0,0,0-.474,3.738l0,.664a13.76,13.76,0,0,0,2.527,7.725l.482.241v.482l.723.241.5.527A10.36,10.36,0,0,0,22.338,18.9a18.146,18.146,0,0,0,4.635-.929c5.063-1.463,9.983-1.7,14.765.873a19.645,19.645,0,0,1,3.069,2.6l-.241.482-.723-.482-.723.482h-.964v.723l-.813.105a2.342,2.342,0,0,0-1.355.377,7.5,7.5,0,0,1-.964-.241l-.377.873c-1.04,2.034-2.6,2.713-4.686,3.492a3.985,3.985,0,0,1-1.684.213v.482l-.917.019a12.466,12.466,0,0,0-5.611.984c-.46.2-.46.2-1.424.2v-.482l-.663-.09a5.053,5.053,0,0,1-1.747-.633v-.482h-4.1l-.241.723a7.723,7.723,0,0,1-1.2.482v.482h-2.41l-.482-1.687-.542-.075a3.788,3.788,0,0,1-1.626-.889q-.488-.213-.979-.422a2.282,2.282,0,0,1-1.4-1.416l-.271-.813-.482-.482a14.4,14.4,0,0,1,0-1.928l-.587-.2-.617-.286-.241-.723h-1.2v-.482H4.567l-.241.723c-1.079-.36-1.268-1.086-1.779-2.064-.427-.906-.8-1.819-1.158-2.755L1.216,15.2c-.178-.487-.343-.977-.5-1.47l-.206-.6A13.546,13.546,0,0,1,.064,7.907l.045-.834Q.164,6.066.23,5.06H.953V8.675l.964.241.179-.4a15.84,15.84,0,0,1,1.3-1.954l.529-.719.4-.546.425.116a4.449,4.449,0,0,0,3.4-.312A3.506,3.506,0,0,0,9.718,2.7,6.456,6.456,0,0,1,11.073,0Z" transform="translate(0.346 33.957)" fill="#d17f97"/>
              <path id="Path_13" data-name="Path 13" d="M25.839,0l.723.241V.723h.723L27.767,0a10.915,10.915,0,0,1-1.145,3.81l-.267.584q-.375.816-.757,1.629l-.311.674c-.88,1.837-1.952,3.575-3,5.32q-.437.733-.864,1.472l-.51.862-.451.769-.408.541h-.723q-.371.475-.723.964h-.482l-.241.723h-.482l-.241.964a17.662,17.662,0,0,1-2.259.587l-.392.136-.241.723q-.713.38-1.446.723c-.327.233-.651.471-.964.723v-.482h-1.2V21.2h.482a3.391,3.391,0,0,1-.482.964,9.744,9.744,0,0,1-2.169.241L7.767,25.3l1.2.482a4.781,4.781,0,0,1,.482,1.2l-.4.344-.529.455L8,28.235A3.319,3.319,0,0,0,7.044,29.4a2.171,2.171,0,0,1-1.928-.482,9.512,9.512,0,0,1,0-1.928H5.6l.181-.708.3-.738a2.065,2.065,0,0,1,.964-.241v-.964a4.213,4.213,0,0,0-1.928,2.41H4.635v1.928C3,28.846,3,28.846,2.2,28.378A7.33,7.33,0,0,1,1.02,27.228v-.723L.3,26.747a36.478,36.478,0,0,1-.29-4.294L0,21.859C-.045,14.718.583,8,2.948,1.2L4.876.964l.241.482c.821.064,1.632.088,2.454.094a8.543,8.543,0,0,1,1.4.147,1.879,1.879,0,0,1,.482.964l-.964.964h.482l.271.542a3.84,3.84,0,0,0,2.379,1.626A2.074,2.074,0,0,0,13.309,5.3a7.183,7.183,0,0,0,.723-1.928h1.2l.241-.723a6.08,6.08,0,0,1,3.449-.512l.61.007q.742.008,1.483.024L20.3,3.855a5.563,5.563,0,0,0,3.614-.964,3.059,3.059,0,0,0,.482-.964L23.671,1.2l.813-.2C25.41.805,25.41.805,25.839,0Z" transform="translate(93.771 53.234)" fill="#d17f97"/>
              <path id="Path_15" data-name="Path 15" d="M11.566,0A25.3,25.3,0,0,1,19.1,4.267q.44.328.884.651a34.849,34.849,0,0,1,7.244,7.13l.695.891A12.332,12.332,0,0,1,30.6,17.831l-.482.241.241,1.446.964.241.075.708a9.715,9.715,0,0,0,.557,2.093,2.893,2.893,0,0,1,.09,2.259l-.241.482a5.113,5.113,0,0,1-3.132-1.687l-.723.482a7.308,7.308,0,0,1-1.22.045l-.641,0a1.843,1.843,0,0,1-1.031-.281v-.723l-.723.241c-.4.022-.8.031-1.2.03l-.633,0a3.362,3.362,0,0,1-1.3-.273v.723c-1.834.917-5.307.317-7.2-.23a4.755,4.755,0,0,1-1.477-1.216l-.241.482q-.839.147-1.687.241l-.482-.723-.7-.058-.744-.183a9.249,9.249,0,0,1-.813-1.717q-.211-.529-.426-1.057l-.22-.545c-.356-.841-.773-1.645-1.206-2.449l-.243-.453a29.464,29.464,0,0,0-1.9-3.023,1.1,1.1,0,0,1-.248-.876H3.132c-.228-.342-.454-.685-.673-1.033A7.661,7.661,0,0,0,1.431,9.864,6.336,6.336,0,0,1,0,7.952V6.988l.449-.027.59-.048.585-.042a1.818,1.818,0,0,0,1.268-.846L3.132,5.3H1.687l-.241-.964.783.075c.938.021.938.021,1.491-.678l.376-.6.964.482L4.819,5.06l.8.271A2.275,2.275,0,0,1,6.943,6.446,11.9,11.9,0,0,1,7.455,8.1a3.09,3.09,0,0,0,1.22,1.777,3.338,3.338,0,0,0,2.169.241A8.052,8.052,0,0,0,12.5,7.831a7.621,7.621,0,0,1,3.4-3.012c.673.336.83.8,1.2,1.446l.527.723a2.435,2.435,0,0,1,.437,1.928l-.964.241v1.928h.482l.482,1.2h.723l.238-.457.319-.6.313-.593c.334-.521.334-.521,1.057-1A8.7,8.7,0,0,0,21.2,8.193q-.466-.475-.934-.949l-.525-.534a2.014,2.014,0,0,0-.951-.686V5.542L17.349,5.3l-.241-1.446-.582-.177C13.8,2.817,13.8,2.817,12.771,1.928V1.2l-.467-.2C11.807.723,11.807.723,11.566,0Z" transform="translate(48.768 28.174)" fill="#d17f97"/>
              <path id="Path_16" data-name="Path 16" d="M42.394,0c0,1.19-.9,1.814-1.687,2.651l-.414.47a18.879,18.879,0,0,1-3.919,3.066,3.306,3.306,0,0,0-1.45,1.283c-.032.552-.056,1.1-.075,1.657-.238,4.3-2.418,7.715-5.467,10.632a18.51,18.51,0,0,1-8.916,3.855l-.828.166A20.534,20.534,0,0,1,4.367,19.307a15.643,15.643,0,0,1-3.9-5.572l-.279-.661A8.213,8.213,0,0,1,.075,10.15l.041-.572c.034-.462.071-.924.109-1.386a4.158,4.158,0,0,1,.964.723,4.7,4.7,0,0,1,.2,1.31l.05.692A5.2,5.2,0,0,1,1.19,12.53l.482.241a5.143,5.143,0,0,1,.964,2.41l.964.241V15.9a1.858,1.858,0,0,0,1.2-.964,6.96,6.96,0,0,1,3.855-.964,5.509,5.509,0,0,0,.964-.241V12.289L8.9,12.048l.241-.964.527.105q.659.132,1.325.226c.557.151.557.151,1.039.873a6.224,6.224,0,0,0,3.062.582l.53.014c.555.014,1.11.026,1.664.037l1.133.028q1.384.035,2.768.062V12.53l1.2-.241-.241-1.2.467.136.5.105.241-.241a11.578,11.578,0,0,1,1.446,0l.241.241c1.381.069,2.487.1,3.569-.873l.286-.331.241.482,1.446-.482.088-.59.122-.78.119-.771c.359-1.766.359-1.766,1.166-2.319l.628-.283.622-.289q.622-.266,1.252-.514a4.5,4.5,0,0,0,2.508-1.682c.4-.227.794-.452,1.2-.67A15.251,15.251,0,0,0,40.227.764,2.674,2.674,0,0,1,41.912.482Z" transform="translate(132.156 55.644)" fill="#d17f97"/>
              <path id="Path_17" data-name="Path 17" d="M32.53,0h.241a14.9,14.9,0,0,1-3.75,11.2,16.952,16.952,0,0,1-11.726,5.271,21.045,21.045,0,0,1-15.448-5.4A7.976,7.976,0,0,1,0,8.675V7.711H.482a2.526,2.526,0,0,1,.723.964l.482.12.482.12L2.41,9.4l.723.241.241,1.446H4.819v-.723H3.855A4.1,4.1,0,0,1,3.614,9.4L4.1,8.675a4.92,4.92,0,0,0-.241-1.2,3.9,3.9,0,0,1,2.41.964c.4-.066.806-.149,1.2-.241q.82-.024,1.642-.015l.848.007.643.008v.482a6.387,6.387,0,0,0,4.1-.723l.663-.218a28,28,0,0,0,3.211-1.41A2.446,2.446,0,0,1,20,6.024l-.136-.587-.105-.617c.241-.241.241-.241.979-.256l.708.015.241-.482v.482l1.2-.241V5.06l.41-.239A3.392,3.392,0,0,1,25,4.548l.584.013.441.017V3.614l.493-.088.651-.122.644-.119A6.056,6.056,0,0,0,29.4,2.651v.723h2.651l-.241-.723.482-.482a5.444,5.444,0,0,0,.151-1.114l.055-.6Z" transform="translate(15.516 62.872)" fill="#d17f97"/>
              <path id="Path_20" data-name="Path 20" d="M19.277,0c.482.241.482.241.723.84a25.2,25.2,0,0,1-.241,16.51l-.241-.723-1.2.241v.482h-.482l-.482,1.2h-.723l-.241.723a6.093,6.093,0,0,1-.934.648l-.51.319a1.832,1.832,0,0,1-1.207.238v.482a8.358,8.358,0,0,1-4.1,1.2v.482a8.574,8.574,0,0,1-3.855-.723v.482c-1.484.727-1.484.727-2.349.708a1.4,1.4,0,0,1-.889-.708c-.358-.562-.358-.562-1.145-.663l-.678-.06V21.2H0v-.482l.6-.16a12.052,12.052,0,0,0,7.788-5.849,18.891,18.891,0,0,0,1.973-7.485l.723.241a6.063,6.063,0,0,0,4.487-.9,9.594,9.594,0,0,1,3.465-.782q.07-.836.136-1.672l.076-.94.029-.761-.241-.241c.022-.368.059-.734.105-1.1l.074-.6Z" transform="translate(158.887 32.029)" fill="#d17f97"/>
              <path id="Path_21" data-name="Path 21" d="M25.3,0c.241.723.241.723.094,1.166A16.654,16.654,0,0,1,15.9,8.916c-1.037.294-2.073.526-3.132.723l-.828.166C7.888,10.16,3.473,9.785,0,7.47l.241-.723H.964V7.47A3.8,3.8,0,0,0,4.1,7.952l.858-.467C7.161,6.347,9.861,6.4,12.289,6.265l.241-.723.856-.019a14.519,14.519,0,0,0,5.572-.967,5.34,5.34,0,0,1,1.6-.355,4.328,4.328,0,0,0,3.012-1.521A3.42,3.42,0,0,0,24.337.723L25.06.482Z" transform="translate(139.851 69.619)" fill="#d17f97"/>
              <path id="Path_22" data-name="Path 22" d="M15.662.971l.776.225q.82.241,1.634.5L17.59,2.9h-.482l.241.964a6.553,6.553,0,0,1-1.2-.241L15.662,2.9h.482V2.417L14.458,2.9v.723l.723.241v.482q-1.122.01-2.244.015l-.643.006-.619,0-.57,0A3.2,3.2,0,0,1,9.879,4.1a3.83,3.83,0,0,0-2.155.241,2.964,2.964,0,0,1-1.58.286l-.55,0a3.265,3.265,0,0,1-1.018-.184,2.406,2.406,0,0,0-1.534.218l-.569.205-.545.2L.482,5.549,0,4.827l.587-.2L1.2,4.345l.241-.723h.723L2.41,3.14,2.169,2.9a5.452,5.452,0,0,1,.723-.723h.723V1.694l-1.446.482V1.694A18,18,0,0,1,15.662.971Z" transform="translate(136.478 50.817)" fill="#d17f97"/>
              <path id="Path_23" data-name="Path 23" d="M.241,0C1.8.323,1.8.323,2.364,1.009a13.788,13.788,0,0,1,.768,2.364l-.241.482.723.241A11.986,11.986,0,0,1,5.92,7.781,4.854,4.854,0,0,0,6.988,9.156q.4.651.768,1.325l.387.7a2.135,2.135,0,0,1,.291,1.348l-.482.241.241.542a3.2,3.2,0,0,1,.241,1.626l.723.241H8.675a8.678,8.678,0,0,0,0,1.446l.482.482a6.284,6.284,0,0,1,.03,1.114l-.013.6-.017.457-.964.482-.107-.691C7.094,13.056,4.353,8.124,1.222,2.955A11.178,11.178,0,0,1,0,.482Z" transform="translate(62.503 61.186)" fill="#d17f97"/>
              <path id="Path_25" data-name="Path 25" d="M17.108,0c.241.723.241.723.024,1.289a16.374,16.374,0,0,1-10.114,8.1A23.2,23.2,0,0,1,0,9.879V9.638H3.855L4.1,8.193q.72-.138,1.446-.241l.241.241c.444-.048.886-.117,1.325-.2l.73-.125.595-.161.241-.482L9.292,6.9l.587-.392V5.542l.738-.136a4.38,4.38,0,0,0,2.232-1.658,2.456,2.456,0,0,1,1.368-.617L14.7,2.41a4.012,4.012,0,0,1,1.687-.723V.482h.723Z" transform="translate(29.733 69.378)" fill="#d17f97"/>
              <path id="Path_27" data-name="Path 27" d="M2.651,0V.482L3.3.587a9.611,9.611,0,0,1,1.4.3A1.4,1.4,0,0,0,5.964.723a5.975,5.975,0,0,1,2.952,0,4.513,4.513,0,0,1,.241.964c-.924.924-2.186.791-3.434.858l-.544.032-1.323.074-.241.723a5.34,5.34,0,0,1-2.41.241A6.011,6.011,0,0,1,0,2.651,8.027,8.027,0,0,1,1.19.783L1.558.335C1.928,0,1.928,0,2.651,0Z" transform="translate(108.045 37.09)" fill="#d17f97"/>
              <path id="Path_29" data-name="Path 29" d="M5.06,0a3.866,3.866,0,0,1,0,1.446A3.147,3.147,0,0,1,3.086,2.767a3.081,3.081,0,0,1-2.5-.719L0,1.446C.317.812.547.743,1.2.482,1.774.375,2.347.286,2.922.211L3.827.088A7.193,7.193,0,0,1,5.06,0Z" transform="translate(104.912 59.499)" fill="#d17f97"/>
              <path id="Path_30" data-name="Path 30" d="M2.169,0l.964.482A27.009,27.009,0,0,1,.964,6.747,11.4,11.4,0,0,1,.241,5.06l.241-.482L0,4.337H.482V3.855L0,3.614Q.463,3,.964,2.41h.482l.09-.8A2.776,2.776,0,0,1,2.169,0Z" transform="translate(120.815 46.969)" fill="#d17f97"/>
              <path id="Path_31" data-name="Path 31" d="M6.265,0c.271.9.271.9,0,1.446a6.62,6.62,0,0,1-3.373.723v.482H1.446V2.169H.241L0,1.446.241.964h4.1V.482C5.723,0,5.723,0,6.265,0Z" transform="translate(29.974 57.33)" fill="#d17f97"/>
              <path id="Path_32" data-name="Path 32" d="M3.916.005l.651.013L5.06.036V.758L2.651,1l-.316.994c-.811,2.4-.811,2.4-1.777,3.072L0,5.337A8.949,8.949,0,0,1,.964,3.409,7.477,7.477,0,0,0,1.22,2.325C1.568.6,1.568.6,2.1.233A4.458,4.458,0,0,1,3.916.005Z" transform="translate(76.72 76.331)" fill="#d17f97"/>
              <path id="Path_34" data-name="Path 34" d="M5.542,0V1.446l-1.054.361-.593.2a2.315,2.315,0,0,1-1,.158l-.241.482H2.169v.482H1.2v.482L0,3.855c.354-1.119,1.284-1.52,2.244-2.063l.485-.282q.468-.272.938-.54C4.048.751,4.424.523,4.8.295,5.3,0,5.3,0,5.542,0Z" transform="translate(113.346 28.897)" fill="#d17f97"/>
              <path id="Path_35" data-name="Path 35" d="M0,.045C1.762-.2,3.108.571,4.578,1.49a30.055,30.055,0,0,1,2.41,2.169l-.241.482-.5-.452a2.387,2.387,0,0,0-1.6-.738l-.8-.256a10.044,10.044,0,0,1-.482-1.2,3.128,3.128,0,0,0-1.2-.482L1.009.617,0,.286Z" transform="translate(38.166 51.744)" fill="#d17f97"/>
              <path id="Path_37" data-name="Path 37" d="M.69,0H.931l.04.471q.092,1.075.185,2.15l.064.74q.2,2.3.433,4.591c-.723-.9-.723-.9-.723-1.446H.449Q.318,5.678.193,4.849L.049,3.917c-.082-.785-.082-.785.159-1.267H.69Z" transform="translate(108.8 79.74)" fill="#d17f97"/>
              <path id="Path_39" data-name="Path 39" d="M3.438.085l.241.241c.365.056.732.1,1.1.136l.6.061.466.044V.808q-.753.01-1.506.015L3.494.831A6.006,6.006,0,0,1,1.751.567C1.3,1.431.925,2.32.546,3.217L.064,2.976C-.05,1.257-.05,1.257.4.446A4.7,4.7,0,0,1,3.438.085Z" transform="translate(74.246 72.908)" fill="#d17f97"/>
              <path id="Path_40" data-name="Path 40" d="M.964,0c.852.129.852.129,1.2.482-.042.648-.149,1.284-.241,1.928L.482,2.651,0,1.928A3.454,3.454,0,0,1,.964,0Z" transform="translate(96.478 59.258)" fill="#d17f97"/>
              <path id="Path_42" data-name="Path 42" d="M.241.026C1.6-.034,1.6-.034,2.41.508a7.4,7.4,0,0,1-.482,1.446,2.066,2.066,0,0,1-.964.241A8.041,8.041,0,0,1,0,.99,2.157,2.157,0,0,1,.241.026Z" transform="translate(111.659 58.027)" fill="#d17f97"/>
              <path id="Path_43" data-name="Path 43" d="M2.425.01,3.2,0A1.233,1.233,0,0,1,4.337.537a3.762,3.762,0,0,1-2.575.512L1.25,1.043C.833,1.037.416,1.029,0,1.019L.241.3A6.34,6.34,0,0,1,2.425.01Z" transform="translate(20.335 52.938)" fill="#d17f97"/>
              <path id="Path_44" data-name="Path 44" d="M0,0H.482l.706,1.294c.237.433.237.433.74.633V2.41l.723.241C3.986,3.827,3.986,3.827,4.1,4.819H3.373l-.437-.663A2.3,2.3,0,0,0,1.672,2.892,4.044,4.044,0,0,1,0,0Z" transform="translate(12.383 46.728)" fill="#d17f97"/>
              <path id="Path_45" data-name="Path 45" d="M3.373,0,3.132.723H2.41l-.241.723a2.719,2.719,0,0,1-1.928.482L0,2.41c0-.723,0-.723.344-1.1L.8.934,1.247.555A3.021,3.021,0,0,1,3.373,0Z" transform="translate(40.817 57.089)" fill="#d17f97"/>
              <path id="Path_46" data-name="Path 46" d="M2.41,0h.482A14.4,14.4,0,0,1,1.416,2.846l-.272.436q-.33.528-.662,1.055A5.478,5.478,0,0,1,0,3.373a4.01,4.01,0,0,1,.723-1.2H1.2L1.446,1.2h.482V.482H2.41Z" transform="translate(113.346 64.559)" fill="#d17f97"/>
              <path id="Path_47" data-name="Path 47" d="M3.855,0l.482.241q-.948.484-1.9.964l-.545.279-.522.264-.482.245A1.5,1.5,0,0,1,0,2.169,2.966,2.966,0,0,1,1.446.482Q2.285.335,3.132.241Z" transform="translate(136.96 30.584)" fill="#d17f97"/>
              <path id="Path_48" data-name="Path 48" d="M.964,0h.482l-.12.678A4.828,4.828,0,0,0,1.2,2.169,11.251,11.251,0,0,1,0,3.132,7.365,7.365,0,0,1,.964,0Z" transform="translate(98.406 48.415)" fill="#d17f97"/>
              <path id="Path_49" data-name="Path 49" d="M0,0H.482q.424.759.843,1.521l.244.434a3.463,3.463,0,0,1,.6,1.9H1.687C.964,2.5.964,2.5.964,1.687H.482A2.851,2.851,0,0,1,0,0Z" transform="translate(175.995 27.933)" fill="#d17f97"/>
              <path id="Path_50" data-name="Path 50" d="M3.373.218l-1.2.241V.941H0V.218Q.572.147,1.145.083L1.788.006A4.145,4.145,0,0,1,3.373.218Z" transform="translate(152.622 73.979)" fill="#d17f97"/>
              <path id="Path_51" data-name="Path 51" d="M.482,0a3.985,3.985,0,0,1,.633,2.455l.055.929L1.2,4.1,0,2.892H.723L.482,2.169C.466,1.792.461,1.416.467,1.039L.473.449Z" transform="translate(85.153 63.354)" fill="#d17f97"/>
              <path id="Path_52" data-name="Path 52" d="M.5,0l.723.241L.745,2.41.023,2.169a15.743,15.743,0,0,1,0-1.687Z" transform="translate(75.974 74.679)" fill="#d17f97"/>
              <path id="Path_53" data-name="Path 53" d="M0,0C1.626.211,1.626.211,2.169.482v.964H.482L.964.964,0,.482Z" transform="translate(49.491 23.837)" fill="#d17f97"/>
              <g id="Group_2" data-name="Group 2" transform="translate(0 0)">
                <path id="Path_2" data-name="Path 2" d="M37.443,1.72l.565.17a42.859,42.859,0,0,1,6.28,2.435c1.537.743,3.1,1.429,4.66,2.124l1.773.793.857.383q1.078.484,2.151.979c1.183.539,2.379,1.04,3.58,1.537a46.8,46.8,0,0,1,10.566,5.73q.435.326.874.646A34.69,34.69,0,0,1,76,23.647l.32.419A52.292,52.292,0,0,1,86.675,55.751c0,.562,0,1.124.011,1.687.024,5.741-1.654,10.662-4.129,15.8-1.479,3.092-2.362,5.872-1.365,9.282,1.042,2.726,3.093,4.033,5.648,5.226a10.389,10.389,0,0,0,7.6-.295,9.662,9.662,0,0,0,4.837-5.7c.632-3.492-.476-6.306-2.04-9.346a29.161,29.161,0,0,1-3.458-13.294l-.005-.594c-.059-8.771.965-17.253,4.873-25.232l.2-.428a44.713,44.713,0,0,1,18.59-19.813l.437-.256a62.856,62.856,0,0,1,7.5-3.527c1.47-.617,2.911-1.259,4.33-1.985.619-.312,1.249-.583,1.892-.843q1.517-.619,3.012-1.28c10.107-4.324,20.318-7.1,31.024-3.193a19.784,19.784,0,0,1,5.06,2.892v.482l.527.166A5.692,5.692,0,0,1,173.1,7.021l.465.454a24.326,24.326,0,0,1,6.608,17.194,23.114,23.114,0,0,1-2.013,9.1l-.2.457a25.291,25.291,0,0,1-9.926,11.359c-.724.395-.724.395-.953.954-.032.552-.056,1.1-.075,1.657-.238,4.3-2.418,7.715-5.467,10.632a18.51,18.51,0,0,1-8.916,3.855l-.828.166a20.534,20.534,0,0,1-15.271-4.473,13.866,13.866,0,0,1-4.7-9.556,15.051,15.051,0,0,1,1.041-6.619l.231-.625a11.767,11.767,0,0,1,6.034-5.881l.585-.266c4.093-1.763,8.25-1.473,12.427-.216,3.824,1.146,6.842,1.415,10.544-.31a12.885,12.885,0,0,0,5.811-7.476,13.69,13.69,0,0,0-1.427-10.764c-2.037-3.145-4.422-4.377-8.026-5.192-8.414-1.487-18.546,2.221-25.482,6.825-4.937,3.5-7.923,8.637-9.941,14.253-.61,1.677-1.292,3.324-1.98,4.971q-.2.486-.4.974a64.614,64.614,0,0,1-4.26,8.663l-.309.52c-.622,1.044-1.261,2.078-1.9,3.109-4.307,7-5.63,13.469-3.825,21.536q.162.624.332,1.245c1.641,6.016,1.325,11.782-1.715,17.262-.574,1-1.179,1.973-1.78,2.953a25.982,25.982,0,0,0-3.955,14.19q0,.563-.009,1.127-.012,1.465-.011,2.929,0,2.348-.022,4.7c0,.539,0,1.079,0,1.618-.008,2.733-.07,5.51-1.377,7.97l-.252.487a12.991,12.991,0,0,1-5.907,5.763l-.6.3a12.8,12.8,0,0,1-5.079.77l-.7.007a14.485,14.485,0,0,1-9.777-3.915,13.42,13.42,0,0,1-3.4-8.972l0-.5q0-.538-.006-1.075,0-.857-.013-1.713-.022-2.435-.036-4.87-.008-1.493-.024-2.985-.005-.563-.006-1.126a29.712,29.712,0,0,0-4.827-15.972c-3.586-5.9-4.306-12.03-2.757-18.74l.149-.644q.387-1.659.795-3.312a20.307,20.307,0,0,0-.461-10.983l-.231-.766c-1.273-3.67-3.482-7.049-5.462-10.372-.693-1.169-1.327-2.355-1.917-3.58q-.356-.733-.736-1.453a50.508,50.508,0,0,1-2.533-5.864c-.5-1.331-1.026-2.629-1.634-3.913-.258-.56-.477-1.126-.694-1.7a31.125,31.125,0,0,0-3.652-6.654,1.1,1.1,0,0,1-.248-.876H51.9c-.226-.338-.45-.677-.668-1.019a18.376,18.376,0,0,0-6.32-5.486l-.826-.452A52.171,52.171,0,0,0,31.178,11.84l-.591-.134a27.1,27.1,0,0,0-5.523-.438l-.894-.018a13.48,13.48,0,0,0-9.256,3.34,13.577,13.577,0,0,0-3.253,5.684L11.42,21c-.365,3.842.085,7.63,2.41,10.843l.482.241v.482l.723.241.5.527a10.36,10.36,0,0,0,7.154,2.952,18.146,18.146,0,0,0,4.635-.929c5.043-1.458,10.02-1.728,14.772.886a14.462,14.462,0,0,1,6.194,9.094,14.663,14.663,0,0,1-.964,7.711l-.363.786c-2.118,4.241-5.367,6.586-9.682,8.227a20.679,20.679,0,0,1-15.253-1.342c-3.989-2.427-7-5.143-8.3-9.749a19.117,19.117,0,0,1-.528-4.093,1.638,1.638,0,0,0-.812-1.3c-.7-.48-1.406-.938-2.121-1.392a24.408,24.408,0,0,1-5.831-5.837L4,37.768C.427,32.642-.685,25.609.4,19.536A21.967,21.967,0,0,1,5.637,8.708l.332-.367C14.058-.491,26.444-1.6,37.443,1.72Z" transform="translate(0 16.575)" fill="#d17f97"/>
                <path id="Path_3" data-name="Path 3" d="M76.923,4.966v.482l.527.166a5.692,5.692,0,0,1,1.882,1.521l.465.454a24.326,24.326,0,0,1,6.608,17.194,23.114,23.114,0,0,1-2.013,9.1l-.2.457A25.291,25.291,0,0,1,74.262,45.7c-.724.395-.724.395-.953.954-.032.552-.056,1.1-.075,1.657-.238,4.3-2.418,7.715-5.467,10.632A18.51,18.51,0,0,1,58.851,62.8l-.828.166a20.534,20.534,0,0,1-15.271-4.473,13.866,13.866,0,0,1-4.7-9.556,15.051,15.051,0,0,1,1.041-6.619l.231-.625a11.767,11.767,0,0,1,6.034-5.881l.585-.266c4.093-1.763,8.25-1.473,12.427-.216,3.824,1.146,6.842,1.415,10.544-.31a12.885,12.885,0,0,0,5.811-7.476A13.69,13.69,0,0,0,73.3,16.777c-2.037-3.145-4.422-4.377-8.026-5.192C56.857,10.1,46.725,13.806,39.789,18.41c-4.937,3.5-7.923,8.637-9.941,14.253-.61,1.677-1.292,3.324-1.98,4.971q-.2.486-.4.974A64.456,64.456,0,0,1,23.2,47.27l-.306.512q-.307.513-.616,1.025c-.289.482-.572.967-.855,1.452l-.512.866-.451.769-.408.541h-.723q-.371.475-.723.964h-.482l-.241.723h-.482l-.241.964a17.666,17.666,0,0,1-2.259.587l-.392.136-.241.723q-.713.38-1.446.723c-.327.233-.651.471-.964.723V57.5h-1.2v.482h.482a3.391,3.391,0,0,1-.482.964,9.744,9.744,0,0,1-2.169.241l-.723,2.892,1.2.482a4.78,4.78,0,0,1,.482,1.2l-.4.344-.529.455-.525.449a3.319,3.319,0,0,0-.951,1.162,2.171,2.171,0,0,1-1.928-.482,9.513,9.513,0,0,1,0-1.928H5.6l.181-.708.3-.738a2.066,2.066,0,0,1,.964-.241V61.11a4.213,4.213,0,0,0-1.928,2.41H4.635v1.928C3,65.619,3,65.619,2.2,65.15A7.33,7.33,0,0,1,1.02,64v-.723L.3,63.519a36.482,36.482,0,0,1-.29-4.294L0,58.632C-.056,49.861.968,41.379,4.876,33.4l.2-.428a44.713,44.713,0,0,1,18.59-19.813l.437-.256a62.857,62.857,0,0,1,7.5-3.527c1.47-.617,2.911-1.259,4.33-1.985.619-.312,1.249-.583,1.892-.843q1.517-.619,3.012-1.28C51.709.617,66.642-3.653,76.923,4.966Z" transform="translate(93.771 16.461)" fill="#d17f97"/>
                <path id="Path_4" data-name="Path 4" d="M37.443,1.72l.565.17a42.859,42.859,0,0,1,6.28,2.435c1.537.743,3.1,1.429,4.66,2.124l1.773.793.856.382q1.089.489,2.171.992c.883.4,1.772.773,2.677,1.124l.689.268q.7.27,1.4.533c1.71.673,1.71.673,2.308,1.473l.233.55.482.241.241.723a9.28,9.28,0,0,0,2.726,1.25l.78.251.59.185a5.858,5.858,0,0,1,.241,1.687l1.446.241v.482l.425.186a5.715,5.715,0,0,1,1.442,1.169l.448.461.335.352c-.362,1.358-.362,1.358-.934,1.777a3.878,3.878,0,0,0-1.2,1.9,1.135,1.135,0,0,1-.753.629l-.482.032-.482-.482v-.964h-.482V20.756l.723-.241a4.039,4.039,0,0,0-.964-2.651l-.241-.723-.723-.482a10.606,10.606,0,0,0-3.87,3.765c-.708,1.233-.708,1.233-1.19,1.536a4.073,4.073,0,0,1-2.349-.286,4.428,4.428,0,0,1-1.551-2.861,2.357,2.357,0,0,0-.911-1.56,10.4,10.4,0,0,0-1.453-.594l.241-1.446-.723-.482-.211.452a2.807,2.807,0,0,1-.753.994,14.2,14.2,0,0,1-1.687-.241l.241.723L51.9,16.9a2.314,2.314,0,0,1-.964,1.687,5.076,5.076,0,0,1-1.13.166l-.59.048-.449.027.241.437a2.011,2.011,0,0,1,.241,1.25l-.276-.31c-4.268-4.547-11.851-7.029-17.8-8.365l-.591-.134a27.1,27.1,0,0,0-5.523-.438l-.894-.018a13.48,13.48,0,0,0-9.256,3.34,13.577,13.577,0,0,0-3.253,5.684L11.42,21c-.365,3.842.085,7.63,2.41,10.843l.482.241v.482l.723.241.5.527a10.36,10.36,0,0,0,7.154,2.952,18.146,18.146,0,0,0,4.635-.929c5.043-1.458,10.02-1.728,14.772.886a14.462,14.462,0,0,1,6.194,9.094,14.663,14.663,0,0,1-.964,7.711l-.363.786c-2.118,4.241-5.367,6.586-9.682,8.227a20.679,20.679,0,0,1-15.253-1.342c-3.989-2.427-7-5.143-8.3-9.749a19.117,19.117,0,0,1-.528-4.093,1.638,1.638,0,0,0-.812-1.3c-.7-.48-1.406-.938-2.121-1.392a24.408,24.408,0,0,1-5.831-5.837L4,37.768C.427,32.642-.685,25.609.4,19.536A21.967,21.967,0,0,1,5.637,8.708l.332-.367C14.058-.491,26.444-1.6,37.443,1.72Z" transform="translate(0 16.575)" fill="#d17f97"/>
                <path id="Path_5" data-name="Path 5" d="M58.794,4.319l.639.278a29.448,29.448,0,0,1,6.559,3.66,11.936,11.936,0,0,0,1.725,1.058,21.529,21.529,0,0,1,2.026,1.54l.4.325c.324.272.634.56.942.85v.482l.429.065c1.425.469,2.418,2.321,3.185,3.549-6.5,4.07-14.952,5.45-22.409,6.506l-.88.133A96.675,96.675,0,0,1,4.367,18.144l-.734-.272A21.041,21.041,0,0,1,0,16.126q.283-.424.572-.843l.322-.474.311-.369h.482v-.482a8.465,8.465,0,0,1,.843-.768c.759-.64.759-.64,1.5-1.3C10.571,5.833,19.062,2.558,27.71.946l.611-.118A54.043,54.043,0,0,1,58.794,4.319Z" transform="translate(52.865 0)" fill="#d17f97"/>
                <path id="Path_9" data-name="Path 9" d="M60,4.966v.482l.527.166a5.692,5.692,0,0,1,1.882,1.521l.465.454a20.717,20.717,0,0,1,3.134,4.305l.345.6c1.51,2.679,1.51,2.679,1.251,4.208a2.868,2.868,0,0,0,.105,1.762c0,.487-.014.975-.045,1.461l-.04.777c-.155.654-.155.654-.561.971a12.087,12.087,0,0,1-1.974.376,4.14,4.14,0,0,0-2.2.783,4.508,4.508,0,0,1-2.986.462,1.23,1.23,0,0,0-1.111.231,11.753,11.753,0,0,1-.768-2.651,12.724,12.724,0,0,0-4.94-7.666c-4.632-2.656-10.847-2.186-15.816-.917a47.288,47.288,0,0,0-9.764,3.726,4,4,0,0,1-2.447.037,2.366,2.366,0,0,0-1.446,1.2H21.927v-.482l-1.446.482v.482l-1.2.241v.482c-1.6.723-1.6.723-2.41.723l-.151.422A4.186,4.186,0,0,1,14.94,21.11c-.4.091-.8.173-1.2.241l-.318-.43a10.924,10.924,0,0,0-1.369-1.5,2.022,2.022,0,0,0-1.446.241l-.105.467c-.136.5-.136.5-.376.738a8.393,8.393,0,0,1-4.354-.561A7.156,7.156,0,0,0,2.229,20.3a2.727,2.727,0,0,1-1.988-.392L0,19.424l.512-.286a10.783,10.783,0,0,0,1.446-1.084c.693-.557.693-.557,1.416-.557v-.482l-.482-.482.964-.482v-.482h.964v-.482H5.3l.482-.964.482.241a3.375,3.375,0,0,0,1.687-.482l.122-.781a1.7,1.7,0,0,1,.892-1.272c.726-.359,1.46-.679,2.209-.989l.756-.329c1.022-.443,2.05-.868,3.079-1.294l.768-.318.688-.282c.629-.271,1.238-.567,1.848-.879,1.09-.557,2.2-1.032,3.336-1.494.761-.314,1.513-.644,2.267-.976C34.786.617,49.718-3.653,60,4.966Z" transform="translate(110.695 16.461)" fill="#d17f97"/>
                <path id="Path_11" data-name="Path 11" d="M66.6.07a5.421,5.421,0,0,1,2.078,1.3v.482l.429.065c1.425.469,2.418,2.321,3.185,3.549-6.5,4.07-14.952,5.45-22.409,6.506L49,12.1A95.788,95.788,0,0,1,0,6.666V6.184l.648.181c.824.147.824.147,1.461-.407l.542-.5h.482V4.979H5.06V4.5h.964l.241.482.617.361L7.47,5.7v.482l.723-.241c3.676-.346,7.4-.365,11.084-.482V4.979a19.63,19.63,0,0,1,6.175-.746h.721q1.13,0,2.261.007l1.541,0q1.88,0,3.76.012V3.774a16.059,16.059,0,0,1,5.587-.8l.676,0a8.49,8.49,0,0,1,4.821,1.043,33,33,0,0,0,10.6.241V3.774l.466-.141.6-.19.6-.186c.541-.159.541-.159.739-.687.49-.186.989-.348,1.491-.5l.824-.249a12.313,12.313,0,0,1,3.438-.473l.57.007.424.008.2-.452C65.267.029,65.61-.113,66.6.07Z" transform="translate(55.274 10.665)" fill="#d17f97"/>
                <path id="Path_18" data-name="Path 18" d="M33.734,1.748l.565.17A45.859,45.859,0,0,1,41.1,4.6c1.305.627,2.624,1.225,3.94,1.83l1.663.767,1.243.573v.964H46.264l.482-.482a4.143,4.143,0,0,0-2.169-.723l-.723-.241-.316.361c-.407.361-.407.361-1.13.361l-.241.482V8.013l-.482-.241.241-.482-.548-.063a11.282,11.282,0,0,1-4.19-1.34A9.48,9.48,0,0,0,34.7,5.121V4.639l-.7.12a20.348,20.348,0,0,1-3.244.12c-.694-.011-1.384-.011-2.078,0l-.241.241a8.043,8.043,0,0,1-1.2,0l-.241-.241a13.27,13.27,0,0,0-6.265.723l-.889.226a4.629,4.629,0,0,0-2.726,1.943,11.152,11.152,0,0,1-1.2.482l-.435.249a4.684,4.684,0,0,1-1.914.323,6.307,6.307,0,0,0-4.638,2.319,8.39,8.39,0,0,1-6.3,1.594,6.824,6.824,0,0,1-2.377-.871L0,11.145C3.04,6,8.749,2.545,14.352.95A36.628,36.628,0,0,1,33.734,1.748Z" transform="translate(3.709 16.547)" fill="#d17f97"/>
                <path id="Path_19" data-name="Path 19" d="M43.132,4.506l-.723.723.482.241-.964.241V5.229a2.744,2.744,0,0,0-1.655.24,3.288,3.288,0,0,1-1.689.287l-.6,0a8.128,8.128,0,0,1-1.331-.163,14.086,14.086,0,0,0-2.406-.134l-.841.007-.634.008.482,1.2a2.355,2.355,0,0,1-1.913.8,4.947,4.947,0,0,1-2.184-.557V7.4H27.469V6.675l1.2-.482c-.46-.572-.46-.572-1.26-.493l-.953.072-.944.064a16.507,16.507,0,0,0-2.625.6c-.95.171-1.907.3-2.864.426a16.035,16.035,0,0,0-4.1,1.213,15.817,15.817,0,0,1-4.17.936l-.709.095a21.223,21.223,0,0,1-3.1.222l-.241.482-.723-.241c-.48-.02-.961-.026-1.441-.024l-.849,0-.887.006-.9,0q-1.1,0-2.192.012L.482,8.844H0V8.362c1.654-.853,3.315-1.645,5.039-2.346.756-.31,1.5-.638,2.25-.968C19.025.028,31.7-2.97,43.132,4.506Z" transform="translate(127.321 16.68)" fill="#d17f97"/>
                <path id="Path_26" data-name="Path 26" d="M31.566.519c-3.28.739-6.55,1.455-9.879,1.928l-.819.124A94.517,94.517,0,0,1,6.913,3.5H6.12Q5,3.5,3.873,3.492l-.679,0A8.082,8.082,0,0,1,0,2.929V2.688l.422,0q2.205.008,4.41.012l1.639,0a32.708,32.708,0,0,0,9.914-.5c.857-.039,1.712-.071,2.57-.082A3.648,3.648,0,0,0,21.686,1,8.442,8.442,0,0,1,23.268.715,14.573,14.573,0,0,0,25.356.373,2.332,2.332,0,0,1,26.988.76l.241-.482A6.083,6.083,0,0,1,31.566.519Z" transform="translate(83.467 20.185)" fill="#d17f97"/>
                <path id="Path_54" data-name="Path 54" d="M0,0A7.069,7.069,0,0,1,2.651,1.687l-.241.482A8.387,8.387,0,0,1,0,.482Z" transform="translate(119.611 8.897)" fill="#d17f97"/>
              </g>
              <path id="Path_55" data-name="Path 55" d="M.241,0H.964V.723l1.687.723v.482A9.95,9.95,0,0,1,0,.723Z" transform="translate(139.851 76.366)" fill="#d17f97"/>
              <path id="Path_57" data-name="Path 57" d="M2.892.16A3.984,3.984,0,0,1,0,1.124V.642A3.13,3.13,0,0,1,2.892.16Z" transform="translate(138.647 51.87)" fill="#d17f97"/>
            </g>
          </g>
        </g>
      </g>
    </g>
    <g id="Group_14" data-name="Group 14" transform="translate(1478.5 624.5)">
      <g id="Group_13" data-name="Group 13" transform="translate(135.835 210.919)">
        <g id="Group_12" data-name="Group 12">
          <path id="Path_59" data-name="Path 59" d="M29.8-10.5h-.52c-.605,6.332-4.469,8.934-8.848,8.934-5.551,0-8.8-3.34-8.8-12.926H29.406c.262-10.41-5.941-14.66-13.141-14.66C7.59-29.148,1.52-23.336,1.52-14.617,1.52-5.855,8.066,0,17.609,0,24.074,0,29.148-3.211,29.8-10.5ZM16.223-28.582c4.25,0,3.945,8.891,3.945,13.574H11.625C11.668-23.77,12.969-28.582,16.223-28.582Zm0,0" fill="#454411"/>
        </g>
      </g>
    </g>
    <g id="Group_17" data-name="Group 17" transform="translate(1478.5 624.5)">
      <g id="Group_16" data-name="Group 16" transform="translate(164.459 210.919)">
        <g id="Group_15" data-name="Group 15">
          <path id="Path_60" data-name="Path 60" d="M18.3-25.937c2.254,0,3.3,1.563,3.3,4.859V-8.066A8.079,8.079,0,0,0,29.668,0h1.473V-18.652c0-5.984-3.25-9.93-9.2-9.93-5.551,0-8.324,3.469-9.453,8.629A8.054,8.054,0,0,0,4.426-28.02H2.949V-8.066A8.081,8.081,0,0,0,11.016,0h1.477V-15.875C12.84-21.469,14.789-25.937,18.3-25.937Zm0,0" fill="#454411"/>
        </g>
      </g>
    </g>
    <g id="Group_20" data-name="Group 20" transform="translate(1478.5 624.5)">
      <g id="Group_19" data-name="Group 19" transform="translate(195.598 210.919)">
        <g id="Group_18" data-name="Group 18">
          <path id="Path_61" data-name="Path 61" d="M23.031-39.773h-.172v19.43c-1.391-5.723-4.988-8.8-10.02-8.8-6.9,0-11.277,5.293-11.277,14.445C1.563-5.293,5.984,0,12.969,0c5.2,0,8.848-3.34,10.063-9.586v.219A9.357,9.357,0,0,0,32.4,0V-30.449A9.351,9.351,0,0,0,23.031-39.773ZM11.668-14.7c0-7.332,2.125-12.187,5.336-12.187,2.73,0,5.422,4.121,5.855,10.453v3.469C22.426-6.461,19.734-2.254,17-2.254,13.793-2.254,11.668-7.242,11.668-14.7Zm0,0" fill="#454411"/>
        </g>
      </g>
    </g>
    <g id="Group_23" data-name="Group 23" transform="translate(1478.5 624.5)">
      <g id="Group_22" data-name="Group 22" transform="translate(228.212 210.919)">
        <g id="Group_21" data-name="Group 21">
          <path id="Path_62" data-name="Path 62" d="M31.445-14.7c0-8.676-7.762-14.445-14.965-14.445C9.324-29.148,1.52-23.379,1.52-14.7,1.52-5.9,9.324,0,16.48,0,23.684,0,31.445-5.9,31.445-14.7Zm-19.82,0c0-9.457,1.387-13.879,4.855-13.879s4.9,4.422,4.9,13.879c0,9.586-1.43,14.141-4.9,14.141S11.625-5.117,11.625-14.7Zm0,0" fill="#454411"/>
        </g>
      </g>
    </g>
    <g id="Group_26" data-name="Group 26" transform="translate(1478.5 624.5)">
      <g id="Group_25" data-name="Group 25" transform="translate(258.484 210.919)">
        <g id="Group_24" data-name="Group 24">
          <path id="Path_63" data-name="Path 63" d="M29.5-11.754h-.523C29.016-6.117,26.156-2.3,20.949-2.3c-5.637,0-9.324-4.945-9.324-12.406,0-8.285,2.992-12.926,8.586-12.926,3.516,0,8.242,2.688,8.8,10.063h.48c-.566-8.285-6.336-11.582-12.711-11.582-7.98,0-15.266,5.121-15.266,14.4C1.52-5.16,9.152,0,17.395,0,25.027,0,29.5-4.684,29.5-11.754Zm0,0" fill="#454411"/>
        </g>
      </g>
    </g>
    <g id="Group_29" data-name="Group 29" transform="translate(1478.5 624.5)">
      <g id="Group_28" data-name="Group 28" transform="translate(286.761 210.919)">
        <g id="Group_27" data-name="Group 27">
          <path id="Path_64" data-name="Path 64" d="M16.266-29.148c-6.2,0-10.367,2.43-12.1,6.855H4.77a8.778,8.778,0,0,1,8.371-5.6c4.34,0,6.074,2.43,6.074,7.809v3.773C8.242-15.312,1.477-11.93,1.477-6.16,1.477-3.078,3.469,0,8.285,0c5.594,0,9.934-2.906,11.145-10.148v.824A9.3,9.3,0,0,0,28.715,0V-17.133C28.758-25.461,23.641-29.148,16.266-29.148ZM11.016-8.023c0-4.383,3.383-7.07,8.2-7.852v1.3c0,8.113-2.863,10.539-5.031,10.539C12.273-4.035,11.016-5.379,11.016-8.023Zm0,0" fill="#454411"/>
        </g>
      </g>
    </g>
    <g id="Group_32" data-name="Group 32" transform="translate(1478.5 624.5)">
      <g id="Group_31" data-name="Group 31" transform="translate(315.472 210.919)">
        <g id="Group_30" data-name="Group 30">
          <path id="Path_65" data-name="Path 65" d="M22.816-28.02v-.562c-6.289,0-9.2,3.773-10.324,8.977A8.422,8.422,0,0,0,4.078-28.02H2.949V-8.414A8.422,8.422,0,0,0,11.363,0h1.129V-13.488C12.492-21.34,14.66-28.02,22.816-28.02Zm0,0" fill="#454411"/>
        </g>
      </g>
    </g>
    <g id="Group_35" data-name="Group 35" transform="translate(1478.5 624.5)">
      <g id="Group_34" data-name="Group 34" transform="translate(335.942 210.919)">
        <g id="Group_33" data-name="Group 33">
          <path id="Path_66" data-name="Path 66" d="M29.8-10.5h-.52c-.605,6.332-4.469,8.934-8.848,8.934-5.551,0-8.8-3.34-8.8-12.926H29.406c.262-10.41-5.941-14.66-13.141-14.66C7.59-29.148,1.52-23.336,1.52-14.617,1.52-5.855,8.066,0,17.609,0,24.074,0,29.148-3.211,29.8-10.5ZM16.223-28.582c4.25,0,3.945,8.891,3.945,13.574H11.625C11.668-23.77,12.969-28.582,16.223-28.582Zm0,0" fill="#454411"/>
        </g>
      </g>
    </g>
  </g>
</svg>
