<svg xmlns="http://www.w3.org/2000/svg" xmlns:xlink="http://www.w3.org/1999/xlink" width="500" zoomAndPan="magnify" viewBox="0 0 375 374.999991" height="500" preserveAspectRatio="xMidYMid meet" version="1.0"><defs><clipPath id="2a5cb0a85a"><path d="M 113 115 L 262.5 115 L 262.5 259.703125 L 113 259.703125 Z M 113 115 " clip-rule="nonzero"/></clipPath></defs><g clip-path="url(#2a5cb0a85a)"><path fill="#ff80eb" d="M 254.546875 159.691406 C 259.457031 160.339844 260.632812 155.914062 261.625 152.148438 C 262.371094 149.742188 262.304688 147.207031 261.910156 144.742188 C 261.648438 141.441406 260.683594 138.257812 259.210938 135.296875 C 257.601562 132.308594 256.179688 129.007812 253.625 126.695312 C 252.824219 126.035156 251.867188 125.632812 250.9375 125.191406 C 249.710938 124.519531 248.507812 123.773438 247.167969 123.339844 C 243.898438 122.335938 238.84375 123.171875 235.742188 124.523438 C 234.777344 124.933594 233.820312 125.375 232.90625 125.882812 C 229.007812 121.296875 223.257812 118.273438 217.15625 118.417969 C 216.375 118.371094 215.644531 118.34375 214.964844 118.34375 C 214.457031 118.238281 213.914062 118.226562 213.410156 118.175781 C 211.011719 117.863281 208.785156 119.226562 206.8125 120.429688 C 201.246094 123.867188 199.566406 129.3125 198.320312 135.390625 C 197.808594 137.78125 197.371094 140.191406 197.21875 142.636719 C 197.207031 142.773438 197.195312 142.917969 197.183594 143.0625 C 195.890625 148.21875 195.828125 153.65625 194.050781 158.695312 C 191.351562 165.441406 187.246094 172.332031 180.832031 176.089844 C 180.160156 176.226562 179.484375 176.3125 178.804688 176.351562 C 179.738281 173.96875 180.664062 171.582031 181.628906 169.207031 C 183.761719 163.304688 186.007812 157.304688 186.378906 150.984375 C 186.609375 146.265625 186.441406 141.386719 185.792969 136.707031 C 185.773438 136.601562 185.753906 136.496094 185.730469 136.390625 C 185.710938 135.183594 185.667969 133.980469 185.597656 132.777344 C 185.527344 131.394531 185.570312 129.988281 185.125 128.660156 C 183.953125 124.289062 180.222656 118.175781 176.226562 115.9375 C 174.347656 114.96875 172.035156 114.976562 170.019531 115.453125 C 168.632812 116.027344 167.589844 117.246094 166.859375 118.527344 C 164.882812 122.226562 165.050781 126.578125 165.238281 130.644531 C 165.269531 132.820312 165.464844 134.988281 166.097656 137.078125 C 166.921875 140.515625 167.921875 143.910156 168.746094 147.34375 C 168.957031 149.785156 169.113281 152.234375 169.222656 154.683594 C 169.402344 157.921875 169.265625 161.167969 169.308594 164.410156 C 169.289062 165.359375 169.285156 166.308594 169.269531 167.265625 C 169.078125 167.015625 168.917969 166.6875 168.777344 166.304688 C 168.765625 166.222656 168.753906 166.144531 168.742188 166.066406 C 168.4375 164.53125 168.15625 162.988281 167.882812 161.445312 C 167.84375 161.164062 167.800781 160.917969 167.757812 160.726562 C 167.71875 160.496094 167.675781 160.269531 167.636719 160.039062 C 167.296875 157.796875 166.988281 155.554688 166.703125 153.304688 C 165.511719 145.121094 164.394531 136.808594 161.71875 128.957031 C 161.382812 128.203125 160.941406 127.175781 160.402344 126.109375 C 159.449219 123.65625 158.246094 121.269531 156.320312 119.484375 C 154.914062 118.308594 152.34375 118.695312 151.058594 119.898438 C 149.742188 121.160156 148.742188 123.335938 148.589844 125.148438 C 148.589844 127.871094 148.855469 130.582031 149.601562 133.203125 C 150.675781 137.21875 151.789062 141.21875 153.144531 145.148438 C 153.417969 146.007812 153.730469 146.851562 154.066406 147.679688 C 155.332031 151.546875 156.863281 155.328125 158.542969 159.027344 C 159.945312 161.628906 161.421875 164.191406 162.929688 166.734375 C 163.207031 167.386719 163.492188 168.03125 163.785156 168.675781 C 163.78125 168.839844 163.773438 169.003906 163.765625 169.167969 C 163.515625 169.140625 163.277344 169.097656 163.042969 169.035156 C 162.953125 168.960938 162.859375 168.890625 162.769531 168.816406 C 162.144531 168.164062 161.539062 167.492188 160.953125 166.804688 C 158.800781 163.1875 157.078125 159.335938 155.417969 155.476562 C 153.222656 150.351562 151.625 144.992188 149.410156 139.871094 C 148.507812 137.652344 147.363281 135.558594 146.183594 133.484375 C 145.820312 132.617188 145.445312 131.757812 145.050781 130.90625 C 143.914062 128.0625 142.683594 125.09375 140.140625 123.210938 C 139.957031 123.027344 139.75 122.878906 139.527344 122.761719 C 138.886719 122.371094 138.304688 122.261719 137.769531 122.433594 C 136.324219 122.527344 134.835938 123.398438 134.328125 124.664062 C 133.765625 127.53125 134.507812 130.566406 135.074219 133.402344 C 136.226562 138.644531 138.464844 143.519531 140.917969 148.265625 C 142.3125 150.941406 143.945312 153.46875 145.699219 155.914062 C 146.109375 156.609375 146.523438 157.304688 146.945312 157.996094 C 146.945312 157.996094 146.945312 157.996094 146.945312 158 C 149.347656 162.214844 152.066406 166.261719 154.917969 170.164062 C 155.152344 170.410156 155.40625 170.679688 155.679688 170.96875 C 156.023438 171.515625 156.371094 172.066406 156.71875 172.613281 C 155.703125 171.828125 154.691406 171.03125 153.671875 170.246094 C 151.609375 168.296875 149.769531 166.109375 148.167969 163.761719 C 147.617188 162.890625 147.066406 162.015625 146.515625 161.144531 C 146.476562 161.074219 146.4375 161.003906 146.394531 160.9375 C 145.671875 159.734375 144.914062 158.554688 144.140625 157.386719 C 142.878906 155.398438 141.617188 153.414062 140.351562 151.433594 C 139.992188 150.859375 139.628906 150.285156 139.261719 149.710938 C 138.429688 147.492188 137.628906 145.257812 136.917969 142.996094 C 135.929688 139.816406 134.589844 136.78125 132.644531 134.0625 C 132.054688 133.15625 131.371094 132.332031 130.410156 131.796875 C 128.523438 130.613281 126.425781 131.714844 125.003906 133.101562 C 124.011719 134.148438 123.625 135.613281 123.335938 136.992188 C 122.15625 142.5 123.722656 148.246094 126.335938 153.125 C 128.371094 156.324219 130.242188 159.671875 132.746094 162.542969 C 135.460938 166.632812 138.867188 170.285156 142.664062 173.414062 C 143.910156 174.386719 145.214844 175.34375 146.574219 176.230469 C 143.703125 175.207031 140.882812 174.0625 138.234375 172.519531 C 132.277344 168.839844 127.441406 161.574219 119.613281 162.425781 C 112.941406 162.511719 112.613281 168.835938 114.539062 173.757812 C 116.011719 177.113281 118.949219 179.53125 121.75 181.769531 C 129.390625 187.648438 139.585938 187.96875 148.84375 188.234375 C 149.050781 188.234375 149.257812 188.238281 149.46875 188.238281 C 143.335938 189.316406 137.25 191.105469 131.949219 194.378906 C 126.027344 198.214844 120.140625 203.109375 120.558594 210.839844 C 120.875 213.589844 125.933594 214.042969 128.054688 213.488281 C 129.925781 212.503906 131.007812 210.5 132.359375 208.941406 C 133.800781 206.953125 135.566406 205.214844 137.339844 203.523438 C 140.8125 199.707031 145.433594 197.429688 150.101562 195.398438 C 153.632812 193.980469 157.125 192.175781 160.964844 191.796875 C 154.101562 194.507812 147.792969 198.492188 142.15625 203.226562 C 136.148438 207.886719 130.988281 213.503906 126.675781 219.746094 C 124.824219 222.253906 123.496094 225.160156 123.269531 228.296875 C 123.171875 230.449219 122.375 232.796875 123.53125 234.785156 C 125.21875 237.847656 129.859375 239.035156 132.632812 236.761719 C 140.5625 229.546875 145.875 220.03125 151.121094 210.8125 C 153.03125 207.460938 155.679688 204.636719 158.433594 201.964844 C 161.28125 199.410156 163.894531 196.566406 166.992188 194.308594 C 162.214844 200.332031 157.488281 206.433594 153.097656 212.746094 C 148.917969 218.9375 145.761719 225.804688 143.605469 232.945312 C 142.5625 236.074219 142.324219 239.359375 142.035156 242.621094 C 141.261719 246.980469 142.386719 252.128906 146.238281 254.730469 C 147.054688 255.132812 147.878906 255.320312 148.675781 255.320312 C 150.691406 255.320312 152.539062 254.132812 153.722656 252.28125 C 156.292969 248.714844 158.316406 244.761719 159.640625 240.570312 C 161.601562 234.558594 162.621094 228.320312 163.675781 222.101562 C 165.203125 213.980469 167.195312 205.898438 169.929688 198.089844 C 168.847656 209.480469 167.480469 220.859375 166.824219 232.28125 C 166.675781 239.464844 166.894531 248.410156 173.15625 253.136719 C 179.0625 255.894531 180.148438 252.878906 180.773438 247.566406 C 181.253906 242.988281 181.785156 238.402344 181.886719 233.792969 C 182.050781 226.191406 182.671875 218.558594 182.050781 210.96875 C 181.738281 208.792969 181.332031 206.609375 180.796875 204.460938 C 181.46875 206.425781 182.152344 208.386719 182.484375 210.441406 C 183.550781 217.6875 185.15625 224.851562 187.523438 231.789062 C 188.175781 233.777344 188.855469 235.753906 189.488281 237.75 C 190.171875 240.171875 192.199219 242.234375 194.671875 242.820312 C 196.859375 243.148438 200.050781 242.28125 201.554688 240.605469 C 204.117188 237.113281 204.347656 232.441406 204.035156 228.261719 C 203.644531 223.691406 202.082031 219.351562 200.722656 215 C 200 212.820312 199.351562 210.601562 198.277344 208.558594 C 195.574219 203.476562 191.847656 199.082031 187.664062 195.167969 C 187.914062 195.296875 188.15625 195.433594 188.382812 195.59375 C 188.449219 195.636719 188.519531 195.679688 188.585938 195.726562 C 190.542969 197.394531 192.488281 199.121094 194.574219 200.621094 C 197.371094 203.269531 200.355469 205.734375 203.90625 207.3125 C 205.859375 208.230469 207.726562 209.453125 209.890625 209.792969 C 212.421875 210.191406 215.238281 209.621094 217.058594 207.726562 C 217.808594 206.839844 218.3125 205.785156 218.84375 204.761719 C 220.730469 201.726562 218.832031 198.753906 216.472656 196.691406 C 213.058594 193.691406 209.179688 191.015625 204.886719 189.457031 C 204.179688 189.058594 203.472656 188.667969 202.777344 188.273438 C 199.476562 186.503906 196.238281 184.570312 192.679688 183.34375 C 190.242188 182.464844 187.710938 181.902344 185.179688 181.359375 C 184.152344 181.148438 183.121094 180.929688 182.089844 180.726562 C 182.695312 180.558594 183.304688 180.382812 183.917969 180.210938 C 187.863281 178.390625 190.949219 175.089844 193.695312 171.808594 C 196.894531 167.820312 198.273438 162.804688 199.265625 157.871094 C 200.449219 153.550781 201.5625 149.207031 202.582031 144.839844 C 203.878906 140 204.949219 127.074219 210.15625 125.464844 C 212.253906 124.800781 214.4375 124.523438 216.628906 124.59375 C 217.046875 124.609375 217.46875 124.597656 217.898438 124.582031 C 219.054688 124.550781 220.222656 124.515625 221.265625 125.050781 C 225.070312 127.175781 228.878906 129.882812 231.015625 133.773438 C 233.449219 139.285156 234.101562 145.304688 234.722656 151.234375 C 235.496094 159.328125 235.71875 167.464844 236.472656 175.5625 C 236.464844 175.566406 236.457031 175.574219 236.449219 175.578125 C 236.113281 175.558594 235.78125 175.523438 235.453125 175.472656 C 231.988281 174.375 228.933594 172.046875 226.4375 169.449219 C 224.558594 167.457031 223.898438 164.695312 223.703125 162.027344 C 223.390625 156.308594 223.363281 150.492188 223.328125 144.753906 C 223.074219 140.617188 223.539062 136.257812 221.566406 132.453125 C 220.785156 130.878906 218.984375 130.417969 217.359375 130.699219 C 214.320312 131.75 212.761719 135.882812 211.921875 138.742188 C 211.21875 142.210938 211.632812 145.785156 211.527344 149.300781 C 211.367188 152.492188 212 155.628906 213.214844 158.574219 C 215.949219 165.632812 220.144531 172.886719 227.429688 175.96875 C 228.667969 176.347656 229.980469 176.414062 231.242188 176.726562 C 231.949219 176.9375 232.664062 177.089844 233.382812 177.195312 C 233.285156 177.234375 233.1875 177.277344 233.089844 177.316406 C 226.707031 179.644531 220.964844 174.703125 216.011719 171.335938 C 214.144531 170.003906 212.128906 168.832031 210.550781 167.144531 C 208.625 165.066406 207.308594 162.316406 204.753906 160.898438 C 203.109375 160.332031 201.582031 161.890625 200.875 163.230469 C 200.074219 165.128906 200.878906 167.347656 201.625 169.152344 C 203.074219 172.882812 206.550781 175.007812 209.714844 177.15625 C 210.933594 178.046875 212.257812 178.792969 213.722656 179.203125 C 217.394531 180.5625 221.304688 181.015625 225.203125 181.078125 C 228.824219 181.046875 232.535156 180.171875 235.703125 178.40625 C 236.023438 178.222656 236.347656 178.03125 236.664062 177.832031 C 236.910156 182.074219 237.636719 186.273438 237.957031 190.507812 C 238.140625 195.753906 238 201.003906 238.039062 206.253906 C 238.039062 210.960938 238.039062 215.667969 238.039062 220.375 C 237.550781 220.144531 237.054688 219.703125 236.566406 218.929688 C 234.074219 215.8125 233.539062 212.238281 233.199219 208.378906 C 232.855469 205.015625 232.59375 201.632812 232.570312 198.25 C 232.523438 195.390625 232.816406 192.503906 232.421875 189.660156 C 232.222656 187.28125 230.179688 185.917969 227.882812 186.347656 C 225.660156 186.679688 224.378906 188.832031 223.785156 190.8125 C 221.554688 200.425781 222.40625 211.527344 228.769531 219.457031 C 230.308594 221.214844 234.128906 225.363281 236.6875 226.617188 C 234.804688 227.058594 232.765625 226.863281 230.882812 226.503906 C 228.035156 225.625 225.734375 223.550781 223.511719 221.648438 C 221.3125 219.59375 219.253906 217.226562 216.421875 216.027344 C 214.523438 215.199219 212.121094 214.632812 210.453125 216.226562 C 208.894531 217.753906 208.417969 220.019531 208.269531 222.121094 C 208.679688 228.925781 217.398438 231.40625 223.085938 231.941406 C 226.875 232.320312 230.628906 231.476562 234.210938 230.304688 C 235.484375 229.910156 236.761719 229.511719 238.039062 229.121094 C 238.039062 230.175781 238.039062 231.230469 238.039062 232.289062 C 238.039062 232.304688 238.039062 232.324219 238.039062 232.339844 C 237.964844 233.375 237.882812 234.410156 237.777344 235.445312 C 237.230469 240.109375 236.328125 245.050781 235.332031 249.714844 C 235.144531 250.632812 234.984375 251.558594 234.804688 252.480469 C 234.230469 254.324219 233.648438 256.167969 233.0625 258.011719 C 233.378906 258.976562 234.386719 259.621094 236.582031 259.671875 C 236.785156 259.707031 236.980469 259.722656 237.171875 259.722656 C 239.765625 259.722656 240.945312 256.75 241.640625 254.574219 C 241.65625 254.527344 241.671875 254.480469 241.6875 254.4375 C 241.722656 254.207031 241.757812 253.976562 241.796875 253.746094 C 242.035156 252.207031 242.277344 250.671875 242.519531 249.132812 C 242.53125 249.046875 242.546875 248.960938 242.558594 248.878906 C 242.832031 246.648438 243.105469 244.417969 243.378906 242.191406 C 243.417969 241.847656 243.460938 241.507812 243.503906 241.164062 C 243.554688 240.75 243.605469 240.332031 243.65625 239.914062 C 243.65625 239.914062 243.65625 239.910156 243.65625 239.90625 C 243.730469 239.304688 243.800781 238.699219 243.875 238.09375 C 243.855469 238.066406 243.832031 238.042969 243.8125 238.019531 C 244.035156 235.039062 244.171875 232.054688 244.253906 229.074219 C 244.84375 229.125 245.433594 229.15625 246.027344 229.183594 C 253.695312 229.875 257.664062 222.285156 259.007812 215.835938 C 259.847656 212.136719 259.832031 208.324219 260.125 204.5625 C 260.296875 200.921875 260.449219 197.242188 259.707031 193.652344 C 259.058594 191.566406 258.675781 187.308594 255.875 187.226562 C 253.253906 187.3125 250.6875 189.375 250.148438 191.957031 C 249.460938 197.398438 250.1875 202.890625 250.3125 208.347656 C 250.265625 211.070312 250.050781 213.792969 249.742188 216.496094 C 249.242188 219.519531 248.242188 223.921875 244.65625 224.449219 C 244.554688 224.441406 244.449219 224.433594 244.34375 224.421875 C 244.414062 218.875 244.351562 213.324219 244.355469 207.777344 C 244.203125 199.765625 244.746094 191.710938 243.980469 183.726562 C 243.09375 178.367188 242.34375 173.003906 241.753906 167.609375 C 240.996094 161.925781 240.722656 156.199219 240.167969 150.5 C 239.859375 148.167969 239.507812 145.84375 239.113281 143.527344 C 243.046875 147.957031 243.824219 151.101562 244.449219 156.960938 C 244.65625 158.683594 244.933594 160.402344 245.066406 162.128906 C 245.152344 166.902344 244.234375 171.671875 244.695312 176.441406 C 245.257812 178.957031 244.640625 183.105469 247.359375 184.382812 C 250.433594 185.324219 251.578125 182.457031 252.085938 180.003906 C 252.582031 178.128906 253.121094 176.257812 253.328125 174.324219 C 253.761719 169.886719 252.988281 165.414062 252.339844 161.03125 C 251.378906 157.476562 249.625 154.183594 248.246094 150.78125 C 246.679688 147.042969 245.558594 144.492188 241.691406 142.664062 C 241.238281 142.328125 239.953125 141.664062 238.722656 141.296875 C 238.257812 138.75 237.738281 136.210938 237.160156 133.6875 C 236.59375 131.761719 235.738281 129.921875 234.644531 128.230469 C 236.085938 127.691406 237.558594 127.257812 239.105469 127.140625 C 242.398438 126.363281 245.761719 127.691406 248.089844 130.046875 C 248.839844 130.914062 249.257812 131.996094 249.628906 133.066406 C 250.535156 135.859375 251.289062 138.707031 251.828125 141.589844 C 252.542969 145.554688 253.019531 149.570312 253.441406 153.574219 C 253.632812 154.980469 252.996094 159.210938 254.546875 159.691406 Z M 254.546875 159.691406 " fill-opacity="1" fill-rule="nonzero"/></g></svg>